<mxfile host="app.diagrams.net" modified="2023-11-14T09:54:25.752Z" agent="Mozilla/5.0 (Windows NT 10.0; Win64; x64) AppleWebKit/537.36 (KHTML, like Gecko) Chrome/119.0.0.0 Safari/537.36" version="22.1.0" etag="WfG8-Lg8syuzIj7BNMh9" type="github">
  <diagram name="Page-1" id="cHEIS2RlLjmqBIgx395V">
    <mxGraphModel>
      <root>
        <mxCell id="0" />
        <mxCell id="1" parent="0" />
      </root>
    </mxGraphModel>
  </diagram>
</mxfile>
